<svg width="27" height="40" viewBox="0 0 27 40" fill="none" xmlns="http://www.w3.org/2000/svg">
<path fill-rule="evenodd" clip-rule="evenodd" d="M0.123932 2.16431C0.463468 3.22819 3.70038 31.6285 3.98709 32.383C5.11888 35.3558 9.69885 28.12 11.2532 27.4484C11.8191 28.0672 14.06 32.0812 14.6561 33.0923C15.2521 34.1033 15.7652 34.9861 16.3613 35.9896C16.8675 36.9873 17.4476 37.9457 18.0967 38.8568L18.7079 39.0228C19.811 38.5148 20.8797 37.9351 21.9071 37.2874C22.9864 36.714 24.0183 36.0555 24.9931 35.3181L25.1364 34.7522C24.6384 33.1904 22.7672 30.3986 21.8693 28.867C21.3336 27.9615 18.6852 23.6833 18.5343 23.0722C20.1188 22.7251 21.6958 22.2271 23.235 21.8197L25.574 21.1708C26.6077 20.8841 27.0076 19.9107 26.3286 19.1713C25.6495 18.4319 2.71195 1.96814 1.93479 1.13817L0.516288 0.768433L0.123932 2.16431Z" fill="#EF7C00"/>
</svg>
