<svg width="139" height="91" viewBox="0 0 139 91" fill="none" xmlns="http://www.w3.org/2000/svg">
<path fill-rule="evenodd" clip-rule="evenodd" d="M29.8349 70.4821V87.9644H51.0295V82.4111H36.2031V79.891H44.7443V74.6621H36.2031V72.6098H50.8408V70.4821H56.9148V87.9644H63.215V80.97H65.8559L73.3181 87.9644H82.81L74.2387 80.9549C75.4655 80.9798 76.6656 80.5947 77.6491 79.8608C78.1165 79.4099 78.4796 78.8622 78.713 78.2561C78.9463 77.65 79.0441 77.0002 78.9997 76.3523V71.9987C79.0056 71.4904 78.9473 70.9833 78.8262 70.4896H85.6697V87.972H91.9775V80.7587H102.541C103.925 80.8562 105.3 80.4665 106.427 79.6571C106.895 79.2051 107.258 78.6561 107.491 78.0487C107.725 77.4413 107.822 76.7901 107.777 76.141V72.0062C107.78 71.4981 107.722 70.9915 107.604 70.4972H138.932C138.708 75.8602 136.425 80.9304 132.557 84.6521C128.689 88.3738 123.535 90.4603 118.167 90.477H0.581947V70.4821H29.8349ZM29.0351 51.3021L16.857 63.4876C16.24 64.0929 15.4985 64.5564 14.684 64.8458C13.8767 65.1304 13.0275 65.2783 12.1714 65.2834C11.2916 65.2924 10.4199 65.1149 9.61361 64.7628C8.84173 64.4337 8.1322 63.9743 7.51603 63.4046C6.91956 62.8401 6.44457 62.1597 6.12016 61.4052C5.77672 60.6495 5.60166 59.8282 5.60709 58.9982C5.60712 58.1838 5.76335 57.377 6.06733 56.6215C6.38841 55.8139 6.87701 55.0836 7.50093 54.4786L19.8148 42.0591L6.91995 29.1115C6.31953 28.5272 5.85351 27.8191 5.55426 27.0365C4.95816 25.4749 4.98245 23.7443 5.62217 22.2C5.96468 21.4265 6.43676 20.7171 7.01804 20.1025C7.60256 19.4915 8.29602 18.9951 9.0628 18.6387C9.84058 18.288 10.6844 18.1079 11.5376 18.1105C12.376 18.113 13.2079 18.2584 13.9974 18.5406C14.8126 18.8491 15.5514 19.3304 16.1629 19.9516L28.9898 32.869L41.6432 20.11C42.8951 18.8563 44.5874 18.1414 46.359 18.1181C47.2341 18.1071 48.0997 18.3009 48.8866 18.684C49.6611 19.0258 50.3648 19.5095 50.9616 20.11C51.5502 20.7156 52.0142 21.4308 52.3272 22.2151C52.6573 23.0222 52.8265 23.886 52.8252 24.7579C52.8157 25.5304 52.6754 26.2958 52.4103 27.0215C52.1258 27.7732 51.6832 28.455 51.1125 29.0209L38.1346 42.112L50.2523 54.2598C50.88 54.8678 51.378 55.5968 51.7161 56.4027C52.0213 57.1818 52.1799 58.0106 52.1839 58.8473C52.1828 59.6986 52.0083 60.5406 51.6708 61.3222C51.3287 62.0869 50.8564 62.7864 50.2749 63.3895C49.6878 63.9742 48.9935 64.4404 48.2302 64.7628C47.4526 65.1132 46.6082 65.2908 45.7553 65.2834C44.9106 65.2868 44.073 65.128 43.288 64.8156C42.4917 64.5103 41.7691 64.0397 41.1678 63.4348L29.0502 51.3021H29.0351ZM63.2226 72.64V75.7411H71.8619C72.1538 75.7472 72.4453 75.7168 72.7296 75.6506C72.7435 75.5328 72.7435 75.4138 72.7296 75.296V73.0701C72.744 72.9599 72.744 72.8483 72.7296 72.7381C72.4462 72.6658 72.1543 72.6328 71.8619 72.64H63.2226ZM91.9926 72.64V75.4921H100.639C100.932 75.499 101.224 75.466 101.507 75.394C101.521 75.2788 101.521 75.1622 101.507 75.047V73.0701C101.522 72.9599 101.522 72.8483 101.507 72.7381C101.224 72.6658 100.932 72.6328 100.639 72.64H91.9926ZM81.2784 35.7287C81.2625 33.3923 81.7381 31.0787 82.6742 28.938C83.5764 26.8711 84.8558 24.9904 86.4469 23.3922C88.028 21.7841 89.9097 20.5023 91.9851 19.6196C94.1298 18.6994 96.4421 18.2343 98.7758 18.2539C100.836 18.2308 102.883 18.5915 104.812 19.3178C106.654 20.0315 108.379 21.0184 109.928 22.2453C111.473 21.0216 113.192 20.035 115.028 19.3178C116.934 18.5956 118.958 18.2348 120.997 18.2539C123.359 18.2422 125.699 18.7067 127.878 19.6196C132.161 21.3754 135.614 24.6966 137.536 28.9078C138.518 31.0358 139.018 33.3547 139 35.6985V58.8699C139.004 59.7131 138.839 60.5484 138.513 61.3263C138.188 62.1041 137.709 62.8083 137.106 63.3971C136.514 63.9631 135.827 64.4203 135.076 64.7477C134.296 65.071 133.46 65.2352 132.616 65.2306C131.75 65.2374 130.891 65.0733 130.089 64.7477C129.327 64.4245 128.629 63.967 128.029 63.3971C127.425 62.8083 126.946 62.1041 126.621 61.3263C126.296 60.5484 126.13 59.7131 126.135 58.8699V36.1437C126.134 35.5365 125.986 34.9386 125.705 34.4007C125.41 33.8546 125.016 33.3684 124.543 32.9671C124.061 32.559 123.516 32.2328 122.928 32.0013C122.358 31.7907 121.756 31.6784 121.147 31.6693C120.059 31.6595 119.006 32.0517 118.19 32.7709C117.361 33.4627 116.823 34.4401 116.681 35.5099V46.2845C116.691 47.1539 116.516 48.0155 116.168 48.8121C115.841 49.5712 115.378 50.2641 114.802 50.8569C114.222 51.4459 113.536 51.9195 112.78 52.2528C111.989 52.5913 111.138 52.7659 110.279 52.7659C109.419 52.7659 108.568 52.5913 107.777 52.2528C107.013 51.9107 106.313 51.4384 105.71 50.8569C105.127 50.2684 104.661 49.5745 104.337 48.8121C103.983 48.017 103.805 47.1547 103.816 46.2845V36.7925C103.807 36.5907 103.774 36.3906 103.718 36.1965V36.1587C103.726 35.5534 103.603 34.9535 103.356 34.4007C103.091 33.8476 102.722 33.3506 102.269 32.9369C101.845 32.5193 101.35 32.1818 100.805 31.941C100.247 31.693 99.6429 31.567 99.0323 31.5712C97.936 31.5658 96.8709 31.9359 96.0142 32.62C95.1676 33.2679 94.5641 34.1824 94.3015 35.2156C94.3015 35.3816 94.3618 35.5325 94.3844 35.6759C94.4071 35.8192 94.3844 35.9777 94.3844 36.1437L94.1807 58.9152C94.1571 59.7841 93.9729 60.641 93.6375 61.4429C93.154 62.588 92.3419 63.5641 91.3037 64.2477C90.2656 64.9313 89.048 65.2917 87.805 65.2834C86.9389 65.2902 86.08 65.1261 85.2774 64.8005C84.5141 64.4797 83.816 64.0219 83.2175 63.4499C82.6147 62.8602 82.1359 62.1559 81.8094 61.3785C81.4828 60.601 81.3151 59.766 81.3161 58.9228V35.7287H81.2784ZM58.5068 7.38874C58.4973 6.45552 58.6904 5.53133 59.0727 4.67997C59.4377 3.86226 59.9492 3.11816 60.5817 2.48433C61.2196 1.84043 61.9788 1.32946 62.8155 0.981058C63.6522 0.632657 64.5497 0.453748 65.456 0.454654C66.361 0.454745 67.2571 0.634159 68.0924 0.982531C68.9277 1.3309 69.6857 1.84133 70.3227 2.48433C70.9572 3.1165 71.4689 3.86099 71.8317 4.67997C72.1992 5.53045 72.3888 6.44715 72.3888 7.37363C72.3888 8.30012 72.1992 9.21681 71.8317 10.0673C71.4731 10.8975 70.9612 11.6527 70.3227 12.2931C69.6857 12.9361 68.9277 13.4465 68.0924 13.7949C67.2571 14.1433 66.361 14.3227 65.456 14.3228C64.5497 14.3237 63.6522 14.1448 62.8155 13.7964C61.9788 13.448 61.2196 12.937 60.5817 12.2931C59.9453 11.651 59.4336 10.8962 59.0727 10.0673C58.6935 9.22557 58.5005 8.31192 58.5068 7.38874ZM58.9067 24.6749C58.9045 23.8209 59.0873 22.9766 59.4424 22.2C59.7875 21.4363 60.271 20.743 60.8685 20.1553C61.4821 19.5656 62.198 19.0926 62.9811 18.7594C63.7983 18.4279 64.6722 18.2588 65.5541 18.2614C66.4068 18.2567 67.2515 18.4261 68.0365 18.7594C69.5549 19.4341 70.7567 20.6656 71.3941 22.2C71.7087 22.9872 71.87 23.8272 71.8694 24.6749V59.3453C71.8766 60.2047 71.7017 61.0558 71.3564 61.8428C71.0276 62.6045 70.5593 63.298 69.9756 63.8875C69.3897 64.4738 68.6952 64.9403 67.9308 65.2608C67.1542 65.6142 66.3092 65.7919 65.456 65.7814C64.5984 65.7867 63.7496 65.6092 62.966 65.2608C62.1857 64.941 61.4737 64.4749 60.8685 63.8875C60.2758 63.2958 59.7929 62.6035 59.4424 61.8428C59.0864 61.0585 58.9037 60.2066 58.9067 59.3453V24.6749Z" fill="#EF7C00"/>
</svg>
