<svg width="114" height="114" viewBox="0 0 114 114" fill="none" xmlns="http://www.w3.org/2000/svg">
<path fill-rule="evenodd" clip-rule="evenodd" d="M56.7511 0.0150823C65.3543 0.0254284 73.8427 1.99047 81.5753 5.76179C89.3079 9.53312 96.0825 15.0121 101.388 21.7851C106.693 28.558 110.389 36.4478 112.198 44.8587C114.008 53.2695 113.882 61.9816 111.831 70.3368H74.9276C75.1844 69.5454 75.2181 68.6986 75.0251 67.8893C74.8321 67.08 74.4198 66.3396 73.8335 65.7493C73.312 65.256 72.7546 64.8021 72.166 64.3911C71.2304 63.6819 70.2873 62.9877 69.3441 62.2936C66.6178 60.2815 63.8914 58.2895 61.165 56.3177C58.5544 54.4163 55.9463 52.5124 53.3406 50.606L51.8768 49.5496H91.6026C90.2427 42.9604 87.0422 36.8919 82.3724 32.0482C77.7027 27.2046 71.7552 23.7845 65.22 22.1847C58.6849 20.5849 51.8301 20.8711 45.451 23.0101C39.072 25.149 33.4302 29.053 29.1805 34.269C24.9307 39.4851 22.2472 45.7993 21.4413 52.4789C20.6354 59.1586 21.7402 65.9298 24.6274 72.0069C27.5146 78.084 32.0659 83.2178 37.7532 86.8126C43.4405 90.4073 50.0305 92.3157 56.7586 92.3161H100.989C94.9779 99.7931 87.1696 105.624 78.2936 109.265C69.4176 112.906 59.7636 114.237 50.2335 113.135C40.7034 112.032 31.6083 108.532 23.7979 102.961C15.9875 97.3902 9.71676 89.9303 5.5715 81.2784C1.42624 72.6266 -0.458227 63.0651 0.0941733 53.4874C0.646574 43.9097 3.61781 34.6283 8.73028 26.5103C13.8427 18.3924 20.9296 11.7029 29.3287 7.06685C37.7278 2.43078 47.165 -0.000551528 56.7586 9.38432e-08L56.7511 0.0150823Z" fill="#004263"/>
</svg>
